/* XPM */
static char *XPM_lines[]={
"32 32 39 1",
". c None",
"K c #000000",
"b c #585858",
"a c #a0a0a0",
"# c #c3c3c3",
"l c #ff0003",
"c c #ff0007",
"y c #ff1212",
"n c #ff1818",
"u c #ff1b1b",
"s c #ff2424",
"d c #ff2727",
"i c #ff3636",
"r c #ff3939",
"D c #ff4242",
"I c #ff4545",
"z c #ff5151",
"h c #ff5454",
"e c #ff6666",
"G c #ff6969",
"x c #ff7272",
"E c #ff7e7e",
"H c #ff8181",
"v c #ff8a8a",
"m c #ff8d8d",
"q c #ffa2a2",
"C c #ffabab",
"J c #ffaeae",
"A c #ffbaba",
"o c #ffbdbd",
"t c #ffc0c0",
"k c #ffcfcf",
"w c #ffd8d8",
"j c #ffe1e1",
"B c #ffe4e4",
"F c #ffe7e7",
"g c #fff3f3",
"p c #fff6f6",
"f c #fff9f9",
"................................",
"................................",
".#a.............................",
".ab.............................",
".ab.............................",
".ab..c..........................",
".ab.ccc.........................",
".ab..cdef.................c.....",
".ab...ghij..............klcc....",
".ab.....mno..........pqrsmc.....",
".ab......tuv.......wxyzA........",
".ab.......Brzg...CDnEF..........",
".ab........fGdcHnIJ.............",
".ab..........cllw...............",
".ab...........c.................",
".ab.............................",
".ab.............................",
".ab.............................",
".ab.............................",
".ab.............................",
".ab.............................",
".ab.............................",
".ab.............................",
".ab.............................",
".ab.............................",
".ab.............................",
".ab.............................",
".ab.............................",
".ab.............................",
".aKbbbbbbbbbbbbbbbbbbbbbbbbbbb#.",
"..#aaaaaaaaaaaaaaaaaaaaaaaaaaa..",
"................................"};
