/* XPM */
static char *XPM_peaks[]={
"32 32 24 1",
"h c None",
". c None",
"p c #000000",
"c c #585858",
"u c #808080",
"s c #999999",
"a c #9f9f9f",
"t c #a0a0a0",
"b c #a5a5a5",
"v c #b7b7b7",
"o c #bababa",
"r c #cfcfcf",
"# c #d8d8d8",
"q c #e4e4e4",
"d c #ff0007",
"g c #ff0f16",
"j c #ff1e24",
"n c #ff575c",
"l c #ff7579",
"k c #ffe1e2",
"i c #ffeded",
"e c #fff0f0",
"f c #fff6f6",
"m c #fff9f9",
"................................",
"................................",
".#a.............................",
".bc.............................",
".bc.............................",
".bc..d..........................",
".bc.ddd.........................",
".bc.edf...................d.....",
".bc.ege..................ddd....",
".bc.ege..................fde....",
".bc.ege..................egeh...",
".bc.ege..................egeh...",
".bc.ege.......d..........egeh...",
".bc.ege......ddd.........ege....",
".bc.ege......idi.........ege....",
".bc.ege......ijk.........ege....",
".bc.ege......ijk.........ege....",
".bc.ege......ijk.........egeh...",
".bc.ege......ijk.........egeh...",
".bc.ege......ijk.........egeh...",
".bc.ege......ijk.........ege....",
".bc.ege......ijk.........ege....",
".bc.egi......ijk.........ege....",
".bc.ege......ijk.........ege....",
".bc.ege......ijk.........egeh...",
".bc.ege......ijk.........egeh...",
".bc.ege......ijk.........egeh...",
".bc.ege......ijk.........ege....",
".bc.ege......ilm.........ine....",
".opcccccccccccccccccccccccccccq.",
"..rsssssssssssssssssssssssstuv..",
"................................"};
