/* XPM */
static char *XPM_points[]={
"32 32 13 1",
". c None",
"g c #242424",
"c c #585858",
"j c #999999",
"a c #9f9f9f",
"b c #a0a0a0",
"e c #a5a5a5",
"k c #b7b7b7",
"f c #bababa",
"i c #cfcfcf",
"# c #d8d8d8",
"h c #e4e4e4",
"d c #ff0007",
"................................",
"................................",
".#a.............................",
".bc.............................",
".bc.............................",
".bc..d..........................",
".bc.ddd.........................",
".ec..d....................d.....",
".ec......................ddd....",
".ec.......................d.....",
".ec.............................",
".ec.............................",
".ec...........d.................",
".ec..........ddd................",
".ec...........d.................",
".ec.............................",
".ec.............................",
".ec.............................",
".ec.............................",
".ec.............................",
".ec.............................",
".ec.............................",
".ec.............................",
".ec.............................",
".ec.............................",
".ec.............................",
".ec.............................",
".ec.............................",
".ec.............................",
".fgccccccccccccccccccccccccccch.",
"..ijjjjjjjjjjjjjjjjjjjjjjjjjjk..",
"................................"};
