/* XPM */
static char *XPM_reset_zoom[]={
"32 32 8 1",
". c None",
"b c #000000",
"a c #a0a0a0",
"f c #a0d0a0",
"e c #a0ffa0",
"# c #d0d0d0",
"c c #e8e8e8",
"d c #ffffff",
"................................",
"................................",
"........#aaaa#............b.....",
"......aaccccccaa.........bbb....",
".....acccaaaaccca.......bbbbb...",
"....accaaddddaacca.....bbbbbbb..",
"...accaddddddddacca.......b.....",
"...a#adddaddddddaca.......b.....",
"..###adda.adddddacca......b.....",
"..a#adda..addddddaca......b.....",
"..a#ada..adddddddaca......b.....",
"..a#ada.addddddddaca......b.....",
"..a#addadddddddddaca......b.....",
"..a#addddddddddddaca......b.....",
"..###addddddddddacca......b.....",
"...a#adddddddddda#a.......b.....",
"...a##adddddddda##a....bbbbbbb..",
"....a##aaddddaa##aa.....bbbbb...",
".....a###aaaa###a#ca#....bbb....",
"......aa######aaa##ce#....b.....",
"........#aaaa#...affee#.........",
".................afffee#........",
"..................afffee#.......",
"...................afffee#......",
".....b..........b...afffee#.....",
"....bb..........bb...afffee#....",
"...bbb..........bbb...afffee....",
"..bbbbbbbbbbbbbbbbbb...afffa....",
"...bbb..........bbb.....aaa.....",
"....bb..........bb..............",
".....b..........b...............",
"................................"};
