/* XPM */
static char *XPM_snap[]={
"32 32 26 1",
". c None",
"g c #000000",
"p c #008000",
"o c #00ff00",
"u c #242424",
"v c #585858",
"c c #5a5a5a",
"f c #808080",
"x c #999999",
"a c #9f9f9f",
"b c #a5a5a5",
"t c #bababa",
"j c #c0c0c0",
"w c #cfcfcf",
"# c #d8d8d8",
"d c #ff0007",
"h c #ff0f16",
"m c #ff1e24",
"q c #ff3f44",
"s c #ff7579",
"l c #ffe1e2",
"n c #ffeded",
"i c #fff0f0",
"e c #fff6f6",
"r c #fff9f9",
"k c #ffffff",
"................................",
"................................",
".#a.............................",
".bc.............................",
".bc.............................",
".bc..d..........................",
".bc.ddd.........................",
".bc.ede......fggggf.......d.....",
".bc.ehi....ggjkkkkkgg....ddd....",
".bc.ehi...gjjjggggkkkg...ede....",
".bc.ehi..gjjggkkkkggkkg..ihe....",
".bc.ehi.gjjgkkkkkkkkgkkg.ihe....",
".bc.ehi.gfgkkkgkkkkkkgkg.ihe....",
".bc.ehifffgkkgdgkkkkkgkkgihe....",
".bc.ehigfgkkgkdgkkkkkkgjgihe....",
".bc.ehigfgkgkkglkkkkkkgjgihe....",
".bc.ehigfgkgkgmlkkkkkkgjgihe....",
".bc.ehigfgkkgkmlkkkkkkgjgihe....",
".bc.ehigfgkkkkmlkkkkkkgjgihe....",
".bc.ehifffgkkkmlkkkkkgjjgihe....",
".bc.ehi.gfgkkkmlkkkkkgfg.ihe....",
".bc.ehi.gffgkkmlkkkkgffg.ihe....",
".bc.ehn..gffggmlkkggffgg.ihe....",
".bc.ehi...gfffggggfffgfjgfhe....",
".bc.ehi....ggffffffgggffjofe....",
".bc.ehi......fggggf...gppoof....",
".bc.ehi......eml......gpppoof...",
".bc.ehi......eml.......gpppoof..",
".bc.eqr......esr........gpppoof.",
".tuvvvvvvvvvvvvvvvvvvvvvvgpppoof",
"..wxxxxxxxxxxxxxxxxxxxxxxxgpppoo",
"...........................gpppo"};
