/* XPM */
static char *XPM_snap[]={
"32 32 27 1",
". c None",
"g c #000000",
"p c #008000",
"o c #00ff00",
"u c #242424",
"c c #5a5a5a",
"v c #666666",
"w c #6d6162",
"f c #808080",
"y c #999999",
"a c #9f9f9f",
"b c #a5a5a5",
"t c #bababa",
"j c #c0c0c0",
"x c #cfcfcf",
"# c #d8d8d8",
"d c #ff0007",
"h c #ff0f16",
"m c #ff1e24",
"q c #ff3f44",
"s c #ff7579",
"l c #ffe1e2",
"n c #ffeded",
"i c #fff0f0",
"e c #fff6f6",
"r c #fff9f9",
"k c #ffffff",
"................................",
"................................",
".#a.............................",
".bc.............................",
".bc.............................",
".bc..d..........................",
".bc.ddd.........................",
".bc..de......fggggf.......d.....",
".bc..hi....ggjkkkkkgg....ddd....",
".bc..hi...gjjjggggkkkg...ed.....",
".bc..hi..gjjggkkkkggkkg..ih.....",
".bc..hi.gjjgkkkkkkkkgkkg.ih.....",
".bc..hi.gfgkkkgkkkkkkgkg.ih.....",
".bc..hifffgkkgdgkkkkkgkkgih.....",
".bc..higfgkkgkdgkkkkkkgjgih.....",
".bc..higfgkgkkglkkkkkkgjgih.....",
".bc..higfgkgkgmlkkkkkkgjgih.....",
".bc..higfgkkgkmlkkkkkkgjgih.....",
".bc..higfgkkkkmlkkkkkkgjgih.....",
".bc..hifffgkkkmlkkkkkgjjgih.....",
".bc..hi.gfgkkkmlkkkkkgfg.ih.....",
".bc..hi.gffgkkmlkkkkgffg.ih.....",
".bc..hn..gffggmlkkggffgg.ih.....",
".bc..hi...gfffggggfffgfjgfh.....",
".bc..hi....ggffffffgggffjof.....",
".bc..hi......fggggf...gppoof....",
".bc..hi.......ml......gpppoof...",
".bc..hi.......ml.......gpppoof..",
".bc..qr.......sr........gpppoof.",
".tuvvwvvvvvvvvvvvvvvvvvvvgpppoof",
"..xyyyyyyyyyyyyyyyyyyyyyyygpppoo",
"...........................gpppo"};
