/* XPM */
static char *XPM_toppview[] = {
/* columns rows colors chars-per-pixel */
"32 32 3 1",
"  c blue",
". c red",
"X c white",
/* pixels */
"XXXXXXXXXXXXXXXXXXXXXXXXXXXXXXXX",
"XXXXXXXXX.XXXXXXXXXXXXXXXXXXXXXX",
"XXXXXXXXX.XXXXXXXXXXXXXXXXXXXXXX",
"XXXXXXXXX.XXXXXXXXXXXXXXXXXXXXXX",
"XXXXXXXXX.X              XX   XX",
"XXXXXXXXX.X              XX   XX",
"XXXXXXXXX.X              XX   XX",
"XXXXXXXXX.XXXXX   XXXXXXXX    XX",
"XXXXXXXXX.XXXXX   XX   XXX   XXX",
"XXXXXXXXX.XXXXX   XX   XXX   XXX",
"XXXXXXXXX.XXXXX   XX   XX    XXX",
"XXXXXXXXX.XXXXX   XX   XX   XXXX",
"XXXXX.XXX.XXX.X   XX   XX   XXXX",
"XXXXX.XXX.XXX.X   XX   X    XXXX",
"XXXXX.XXX.XXX.X   XX   X   XXXXX",
"XXXXX.XXX.XXX.X   XX       XXXXX",
"XXXXX.XXX.XXX.X   XX      XXXXXX",
"XXXXX.XX..XXX.X   XX      XXXXXX",
"XXXXX.XX..XXX.X   XX     XXXXXXX",
"XXXXX.XX..XXX.X   XX     XXXXXXX",
"XXXXX.XX..XXX.XXXXXX    XXXXXXXX",
"XXXXX.XX..XXX.XXXXXX    XXXXXXXX",
"XXXXX.XX..XXX.XXXXXX   XXXXXXXXX",
"XXXX..XX..XXX.XXX.XX   XXXXXXXXX",
"XXXX..XX..XXX.XXX.XXXXXXXXXXXXXX",
"XXXX..XX..XXX.XXX.XXXXXXXXXXXXXX",
"XXXX.X.X..XXX.XXX.XXXXXXXXXXXXXX",
"XXXX.X.X.X.XX.XXX.XXX.XXXXXXXXXX",
"XX.X.X.X.X.XX..XX..XX.XXXXXXXXXX",
"XX.X.X.X.X..X..XX..XX..X.XX.XXXX",
".X..XXX.XXX..XX..X..X...........",
"X.XXXXXXXXXXXXXXXXXX.XXXXXXXXXXX"
};
